<svg xmlns="http://www.w3.org/2000/svg" width="24" height="24" viewBox="0 0 24 24" id="document">
  <g transform="translate(0 -.002)">
    <path fill="none" d="M0,0H24V24H0Z" transform="translate(0 .002)"></path>
    <path fill="#FFFFFF" d="M2939.848,983.21h5.2a3.748,3.748,0,0,0,3.06-.9l3.672-3.6a3.078,3.078,0,0,0,1.224-2.7v-10.2a1.818,1.818,0,0,0-1.836-1.8h-11.321a1.818,1.818,0,0,0-1.836,1.8v15.6A1.819,1.819,0,0,0,2939.848,983.21Zm6.963-2.173a1.32,1.32,0,0,1-.232.189v-3.245a1.083,1.083,0,0,1,1.093-1.071h3.311a5.223,5.223,0,0,1-.5.527Zm-6.963-15.227h11.321v9.3h-3.5a2.9,2.9,0,0,0-2.929,2.871v3.429h-4.9Z" transform="translate(-2933.512 -961.609)"></path>
  </g>
</svg>
